<svg xmlns="http://www.w3.org/2000/svg" viewBox="0 0 520 420" role="img" aria-labelledby="title desc">
  <title id="title">Dados CX Customer Experience Gazin</title>
  <desc id="desc">Marca do nucleo de Customer Experience com assinatura Dados CX e Gazin.</desc>
  <defs>
    <linearGradient id="cxBlue" x1="82" y1="54" x2="378" y2="306" gradientUnits="userSpaceOnUse">
      <stop offset="0" stop-color="#004b9f"/>
      <stop offset=".55" stop-color="#0061c8"/>
      <stop offset="1" stop-color="#002e68"/>
    </linearGradient>
    <linearGradient id="cxTeal" x1="320" y1="62" x2="435" y2="198" gradientUnits="userSpaceOnUse">
      <stop offset="0" stop-color="#18c8d2"/>
      <stop offset="1" stop-color="#0791ad"/>
    </linearGradient>
    <filter id="markShadow" x="-18%" y="-18%" width="136%" height="136%">
      <feDropShadow dx="0" dy="12" stdDeviation="16" flood-color="#071832" flood-opacity=".18"/>
    </filter>
    <style>
      .outlined-text { paint-order: stroke fill; stroke: #fff; stroke-linejoin: round; }
      .wordmark { font-family: Arial, Helvetica, sans-serif; font-weight: 900; fill: #003f86; }
    </style>
  </defs>

  <g filter="url(#markShadow)">
    <path fill="url(#cxBlue)" stroke="#fff" stroke-width="10" stroke-linejoin="round" d="M224.8 54.5c47.8 0 89.6 21.7 116.3 56.5l-42.6 33.8c-16.7-21.9-42.6-35-73.2-35-51.2 0-90.3 39.1-90.3 91 0 51.6 39.5 90.7 91.4 90.7 31.7 0 58.6-13.9 76.1-38.4l41.7 33.4c-26.9 38.4-69.5 60.3-119.4 60.3-86 0-149.2-63.3-149.2-146 0-83 63.2-146.3 149.2-146.3Z"/>
    <path fill="url(#cxTeal)" stroke="#fff" stroke-width="10" stroke-linejoin="round" d="M365.3 70.5h67l-98.7 128.7 107.2 139.9h-69.3l-74.6-99.7-75.2 99.7h-66.3l108.2-139.5-97.5-129.1h69.4l62.8 86.7 67-86.7Z"/>
    <path fill="#fff" d="M151.9 223.7c18.5 0 33.5-14.8 33.5-33.1 0-18.4-15-33.2-33.5-33.2s-33.6 14.8-33.6 33.2c0 18.3 15.1 33.1 33.6 33.1Z"/>
    <path fill="#003f86" d="M117.3 220.7c10.3 19.1 31 28.5 52.1 24l-41.2 34.6 6.9-36.8c-7.8-5-13.8-12.1-17.8-21.8Z"/>
    <circle cx="131" cy="190.4" r="6.4" fill="#13b8c8"/>
    <circle cx="151.8" cy="190.4" r="6.4" fill="#13b8c8"/>
    <circle cx="172.6" cy="190.4" r="6.4" fill="#13b8c8"/>
  </g>

  <text class="wordmark outlined-text" x="260" y="274" text-anchor="middle" font-size="23" letter-spacing="2.2" stroke-width="5">DADOS CX</text>
  <text class="wordmark outlined-text" x="260" y="317" text-anchor="middle" font-size="41" letter-spacing="1.8" stroke-width="7">CUSTOMER</text>
  <text class="wordmark outlined-text" x="260" y="356" text-anchor="middle" font-size="39" letter-spacing="1.8" stroke-width="7">EXPERIENCE</text>

  <g transform="translate(152 371)">
    <path d="M20 0h216l-22 42H0L20 0Z" fill="#003f86"/>
    <path d="M34 10h166l-10 21H24l10-21Z" fill="#fff"/>
    <text x="111" y="29" text-anchor="middle" font-family="Arial Black, Arial, Helvetica, sans-serif" font-size="25" font-style="italic" font-weight="900" fill="#003f86">GAZIN</text>
  </g>
</svg>
